<?xml version="1.0" encoding="utf-8"?>
<!-- Generator: Adobe Illustrator 16.0.0, SVG Export Plug-In . SVG Version: 6.00 Build 0)  -->
<!DOCTYPE svg PUBLIC "-//W3C//DTD SVG 1.1//EN" "http://www.w3.org/Graphics/SVG/1.1/DTD/svg11.dtd">
<svg version="1.1" id="Layer_1" xmlns="http://www.w3.org/2000/svg" xmlns:xlink="http://www.w3.org/1999/xlink" x="0px" y="0px"
	 width="24px" height="24px" viewBox="0 0 24 24" enable-background="new 0 0 24 24" xml:space="preserve">
<g>
	<g>
		<path fill="#FFFFFF" d="M9.362,9.158c0,0-3.16,0.35-5.268,0.584c-0.19,0.023-0.358,0.15-0.421,0.343s0,0.394,0.14,0.521
			c1.566,1.429,3.919,3.569,3.919,3.569c-0.002,0-0.646,3.113-1.074,5.19c-0.036,0.188,0.032,0.387,0.196,0.506
			c0.163,0.119,0.373,0.121,0.538,0.027c1.844-1.047,4.606-2.623,4.606-2.623s2.764,1.576,4.604,2.625
			c0.168,0.092,0.379,0.09,0.541-0.029c0.164-0.119,0.232-0.318,0.195-0.505c-0.428-2.078-1.07-5.191-1.07-5.191
			s2.353-2.14,3.918-3.566c0.141-0.131,0.203-0.332,0.141-0.524s-0.23-0.319-0.42-0.341c-2.108-0.236-5.27-0.586-5.27-0.586
			s-1.31-2.898-2.183-4.83c-0.082-0.173-0.254-0.294-0.456-0.294s-0.375,0.122-0.453,0.294C10.671,6.26,9.362,9.158,9.362,9.158z"/>
	</g>
</g>
</svg>
